<svg xmlns="http://www.w3.org/2000/svg" xmlns:xlink="http://www.w3.org/1999/xlink" width="40" zoomAndPan="magnify" viewBox="0 0 30 30.000001" height="40" preserveAspectRatio="xMidYMid meet" version="1.0"><defs><clipPath id="e021e7a457"><path d="M 3 9 L 27 9 L 27 20 L 3 20 Z M 3 9 " clip-rule="nonzero"/></clipPath><clipPath id="6d86b9ebe4"><path d="M 15 0 L 29.367188 14.371094 L 15 28.742188 L 0.628906 14.371094 Z M 15 0 " clip-rule="nonzero"/></clipPath><clipPath id="5fec6a8c38"><path d="M 15 0 L 29.367188 14.371094 L 15 28.742188 L 0.628906 14.371094 Z M 15 0 " clip-rule="nonzero"/></clipPath></defs><g clip-path="url(#e021e7a457)"><g clip-path="url(#6d86b9ebe4)"><g clip-path="url(#5fec6a8c38)"><path fill="#ffd561" d="M 21.472656 19.691406 L 16.296875 19.691406 C 13.433594 19.691406 11.117188 17.375 11.117188 14.511719 C 11.117188 14.0625 11.191406 13.632812 11.296875 13.21875 L 13.707031 13.21875 C 13.820312 13.21875 13.925781 13.257812 14.03125 13.285156 C 13.828125 13.652344 13.707031 14.066406 13.707031 14.511719 C 13.707031 15.941406 14.867188 17.101562 16.296875 17.101562 L 21.472656 17.101562 C 22.902344 17.101562 24.0625 15.941406 24.0625 14.511719 C 24.0625 13.085938 22.902344 11.925781 21.472656 11.921875 L 19.632812 11.925781 C 19.175781 10.886719 18.449219 10.003906 17.550781 9.335938 L 21.472656 9.335938 C 24.335938 9.335938 26.652344 11.652344 26.652344 14.515625 C 26.652344 17.375 24.335938 19.691406 21.472656 19.691406 Z M 10.371094 17.101562 L 8.527344 17.105469 C 7.097656 17.101562 5.9375 15.941406 5.9375 14.515625 C 5.9375 13.085938 7.097656 11.925781 8.527344 11.921875 L 13.707031 11.925781 C 15.132812 11.925781 16.296875 13.085938 16.296875 14.511719 C 16.296875 14.960938 16.171875 15.375 15.972656 15.742188 C 16.078125 15.769531 16.179688 15.808594 16.296875 15.808594 L 18.703125 15.808594 C 18.808594 15.394531 18.886719 14.964844 18.882812 14.511719 C 18.882812 11.652344 16.566406 9.335938 13.707031 9.335938 L 8.527344 9.335938 C 5.664062 9.335938 3.347656 11.652344 3.347656 14.515625 C 3.347656 17.375 5.667969 19.691406 8.527344 19.691406 L 12.453125 19.691406 C 11.550781 19.023438 10.824219 18.140625 10.371094 17.101562 Z M 10.371094 17.101562 " fill-opacity="1" fill-rule="nonzero"/></g></g></g></svg>